{
  "source": "C:\\Users\\Peter\\Desktop\\stuff\\MIUN\\quantitative_research\\video_compression\\videos\\BVI-HD\\Fountain_1920x1080_50fps.mp4",
  "output": "C:\\Users\\Peter\\Desktop\\stuff\\MIUN\\quantitative_research\\video_compression\\compressed_videos\\BVI-HD\\h264\\12\\Fountain_1920x1080_50fps_h264.mp4",
  "codec": "h264",
  "ok": "Input #0, mov,mp4,m4a,3gp,3g2,mj2, from 'C:\\Users\\Peter\\Desktop\\stuff\\MIUN\\quantitative_research\\video_compression\\videos\\BVI-HD\\Fountain_1920x1080_50fps.mp4':\n  Metadata:\n    major_brand     : isom\n    minor_version   : 512\n    compatible_brands: isomiso2avc1mp41\n    encoder         : Lavf54.28.101\n  Duration: 00:00:05.00, start: 0.000000, bitrate: 603457 kb/s\n  Stream #0:0[0x1](und): Video: h264 (High 4:4:4 Predictive) (avc1 / 0x31637661), yuv420p(progressive), 1920x1080, 603453 kb/s, 50 fps, 50 tbr, 50 tbn (default)\n    Metadata:\n      handler_name    : VideoHandler\n      vendor_id       : [0][0][0][0]\n[out#0/mp4 @ 0000027cb2c37280] Codec AVOption b:a (set bitrate (in bits/s)) has not been used for any stream. The most likely reason is either wrong type (e.g. a video option with no video streams) or that it is a private option of some decoder which was not actually used for any stream.\nStream mapping:\n  Stream #0:0 -> #0:0 (h264 (native) -> h264 (libx264))\nPress [q] to stop, [?] for help\n[libx264 @ 0000027cb3730700] using cpu capabilities: MMX2 SSE2Fast SSSE3 SSE4.2 AVX FMA3 BMI2 AVX2\n[libx264 @ 0000027cb3730700] profile High, level 5.0, 4:2:0, 8-bit\n[libx264 @ 0000027cb3730700] 264 - core 165 r3222 b35605a - H.264/MPEG-4 AVC codec - Copyleft 2003-2025 - http://www.videolan.org/x264.html - options: cabac=1 ref=5 deblock=1:0:0 analyse=0x3:0x113 me=hex subme=8 psy=1 psy_rd=1.00:0.00 mixed_ref=1 me_range=16 chroma_me=1 trellis=2 8x8dct=1 cqm=0 deadzone=21,11 fast_pskip=1 chroma_qp_offset=-2 threads=18 lookahead_threads=3 sliced_threads=0 nr=0 decimate=1 interlaced=0 bluray_compat=0 constrained_intra=0 bframes=3 b_pyramid=2 b_adapt=1 b_bias=0 direct=3 weightb=1 open_gop=0 weightp=2 keyint=250 keyint_min=25 scenecut=40 intra_refresh=0 rc_lookahead=50 rc=cbr mbtree=1 bitrate=12000 ratetol=1.0 qcomp=0.60 qpmin=0 qpmax=69 qpstep=4 vbv_maxrate=12000 vbv_bufsize=12000 nal_hrd=none filler=0 ip_ratio=1.40 aq=1:1.00\nOutput #0, mp4, to 'C:\\Users\\Peter\\Desktop\\stuff\\MIUN\\quantitative_research\\video_compression\\compressed_videos\\BVI-HD\\h264\\12\\Fountain_1920x1080_50fps_h264.mp4':\n  Metadata:\n    major_brand     : isom\n    minor_version   : 512\n    compatible_brands: isomiso2avc1mp41\n    encoder         : Lavf62.3.100\n  Stream #0:0(und): Video: h264 (avc1 / 0x31637661), yuv420p(tv, progressive), 1920x1080, q=2-31, 12000 kb/s, 50 fps, 12800 tbn (default)\n    Metadata:\n      encoder         : Lavc62.11.100 libx264\n      handler_name    : VideoHandler\n      vendor_id       : [0][0][0][0]\n    Side data:\n      cpb: bitrate max/min/avg: 12000000/0/12000000 buffer size: 12000000 vbv_delay: N/A\nframe=    0 fps=0.0 q=0.0 size=       0KiB time=N/A bitrate=N/A speed=N/A elapsed=0:00:01.08    \nframe=    0 fps=0.0 q=0.0 size=       0KiB time=N/A bitrate=N/A speed=N/A elapsed=0:00:01.73    \nframe=    0 fps=0.0 q=0.0 size=       0KiB time=N/A bitrate=N/A speed=N/A elapsed=0:00:02.31    \nframe=    1 fps=0.3 q=34.0 size=       0KiB time=N/A bitrate=N/A speed=N/A elapsed=0:00:02.85    \nframe=    2 fps=0.6 q=34.0 size=       0KiB time=00:00:00.00 bitrate=N/A speed=   0x elapsed=0:00:03.50    \nframe=    9 fps=2.2 q=34.0 size=     256KiB time=00:00:00.14 bitrate=14982.4kbits/s speed=0.0345x elapsed=0:00:04.05    \nframe=   21 fps=4.5 q=33.0 size=     512KiB time=00:00:00.38 bitrate=11038.7kbits/s speed=0.0819x elapsed=0:00:04.63    \nframe=   36 fps=7.0 q=32.0 size=     768KiB time=00:00:00.62 bitrate=10148.1kbits/s speed=0.12x elapsed=0:00:05.17    \nframe=   45 fps=7.8 q=33.0 size=    1024KiB time=00:00:00.80 bitrate=10486.2kbits/s speed=0.139x elapsed=0:00:05.75    \nframe=   50 fps=7.7 q=33.0 size=    1280KiB time=00:00:00.94 bitrate=11155.5kbits/s speed=0.146x elapsed=0:00:06.46    \nframe=   65 fps=9.1 q=33.0 size=    1792KiB time=00:00:01.26 bitrate=11651.1kbits/s speed=0.177x elapsed=0:00:07.10    \nframe=   77 fps= 10 q=32.0 size=    2048KiB time=00:00:01.36 bitrate=12336.5kbits/s speed=0.177x elapsed=0:00:07.70    \nframe=   89 fps= 11 q=33.0 size=    2304KiB time=00:00:01.74 bitrate=10847.6kbits/s speed=0.209x elapsed=0:00:08.34    \nframe=  101 fps= 11 q=34.0 size=    2560KiB time=00:00:01.92 bitrate=10922.9kbits/s speed=0.215x elapsed=0:00:08.93    \nframe=  113 fps= 12 q=34.0 size=    3072KiB time=00:00:02.14 bitrate=11759.9kbits/s speed=0.222x elapsed=0:00:09.65    \nframe=  121 fps= 12 q=34.0 size=    3328KiB time=00:00:02.30 bitrate=11853.6kbits/s speed=0.224x elapsed=0:00:10.29    \nframe=  133 fps= 12 q=34.0 size=    3840KiB time=00:00:02.56 bitrate=12288.1kbits/s speed=0.232x elapsed=0:00:11.04    \nframe=  134 fps= 11 q=34.0 size=    3840KiB time=00:00:02.64 bitrate=11915.8kbits/s speed=0.226x elapsed=0:00:11.67    \nframe=  150 fps= 12 q=34.0 size=    4096KiB time=00:00:02.96 bitrate=11336.1kbits/s speed=0.242x elapsed=0:00:12.24    \nframe=  164 fps= 13 q=34.0 size=    4608KiB time=00:00:03.24 bitrate=11651.0kbits/s speed=0.253x elapsed=0:00:12.81    \nframe=  172 fps= 13 q=33.0 size=    4864KiB time=00:00:03.32 bitrate=12001.9kbits/s speed=0.248x elapsed=0:00:13.37    \nframe=  188 fps= 13 q=32.0 size=    5376KiB time=00:00:03.72 bitrate=11838.9kbits/s speed=0.265x elapsed=0:00:14.04    \nframe=  201 fps= 14 q=33.0 size=    5632KiB time=00:00:03.96 bitrate=11650.9kbits/s speed=0.271x elapsed=0:00:14.61    \nframe=  217 fps= 14 q=32.0 size=    6144KiB time=00:00:04.30 bitrate=11705.1kbits/s speed=0.283x elapsed=0:00:15.17    \nframe=  236 fps= 15 q=-1.0 size=    6656KiB time=00:00:04.64 bitrate=11751.4kbits/s speed=0.296x elapsed=0:00:15.69    \nframe=  244 fps= 15 q=-1.0 size=    6912KiB time=00:00:04.84 bitrate=11699.1kbits/s speed=0.298x elapsed=0:00:16.23    \n[mp4 @ 0000027cb2c373c0] Starting second pass: moving the moov atom to the beginning of the file\n[out#0/mp4 @ 0000027cb2c37280] video:7249KiB audio:0KiB subtitle:0KiB other streams:0KiB global headers:0KiB muxing overhead: 0.053337%\nframe=  250 fps= 15 q=-1.0 Lsize=    7252KiB time=00:00:04.96 bitrate=11978.3kbits/s speed=0.302x elapsed=0:00:16.43    \n[libx264 @ 0000027cb3730700] frame I:2     Avg QP:29.03  size:118786\n[libx264 @ 0000027cb3730700] frame P:64    Avg QP:32.27  size: 42135\n[libx264 @ 0000027cb3730700] frame B:184   Avg QP:33.64  size: 24389\n[libx264 @ 0000027cb3730700] consecutive B-frames:  1.6%  0.8%  0.0% 97.6%\n[libx264 @ 0000027cb3730700] mb I  I16..4: 10.1% 75.0% 14.9%\n[libx264 @ 0000027cb3730700] mb P  I16..4:  1.6%  5.8%  0.4%  P16..4: 58.6% 13.1% 10.2%  0.0%  0.0%    skip:10.4%\n[libx264 @ 0000027cb3730700] mb B  I16..4:  0.2%  0.9%  0.1%  B16..8: 56.1%  7.2%  0.8%  direct: 8.7%  skip:25.9%  L0:51.3% L1:47.3% BI: 1.4%\n[libx264 @ 0000027cb3730700] 8x8 transform intra:75.2% inter:76.8%\n[libx264 @ 0000027cb3730700] direct mvs  spatial:94.6% temporal:5.4%\n[libx264 @ 0000027cb3730700] coded y,uvDC,uvAC intra: 72.8% 33.5% 9.2% inter: 30.8% 17.3% 0.3%\n[libx264 @ 0000027cb3730700] i16 v,h,dc,p: 49% 30%  2% 19%\n[libx264 @ 0000027cb3730700] i8 v,h,dc,ddl,ddr,vr,hd,vl,hu: 10%  5%  5% 12% 17% 15% 16% 10% 11%\n[libx264 @ 0000027cb3730700] i4 v,h,dc,ddl,ddr,vr,hd,vl,hu: 13%  3%  9% 12% 14% 15% 12% 11% 12%\n[libx264 @ 0000027cb3730700] i8c dc,h,v,p: 54% 28% 10%  8%\n[libx264 @ 0000027cb3730700] Weighted P-Frames: Y:0.0% UV:0.0%\n[libx264 @ 0000027cb3730700] ref P L0: 41.5% 11.9% 22.6% 12.4% 11.4%  0.1%\n[libx264 @ 0000027cb3730700] ref B L0: 66.6% 20.7%  9.5%  3.1%\n[libx264 @ 0000027cb3730700] ref B L1: 91.3%  8.7%\n[libx264 @ 0000027cb3730700] kb/s:11874.90\n",
  "seconds": 17.069666624069214,
  "probe_out": {}
}